<svg width="1000" height="300" viewBox="0 0 1000 300" fill="none" xmlns="http://www.w3.org/2000/svg">
<path d="M103.575 227.193C100.663 227.193 98.3339 226.61 96.5869 225.154C94.8398 223.99 93.384 221.951 92.2193 219.331L51.1646 127.322C50 124.701 49.7088 122.372 50.2912 120.334C50.8735 118.296 52.0382 116.84 53.494 115.675C55.241 114.511 57.2792 113.928 59.6085 113.928C62.5202 113.928 64.8496 114.511 66.3054 115.966C67.7613 117.422 69.2171 119.169 70.0906 121.79L107.36 207.975H100.663L137.642 121.499C138.806 118.878 140.262 117.131 141.718 115.675C143.174 114.511 145.503 113.637 148.415 113.637C150.744 113.637 152.491 114.219 154.238 115.384C155.694 116.549 156.859 118.005 157.15 120.043C157.441 122.081 157.15 124.41 155.985 127.031L114.639 219.331C113.475 221.951 112.019 223.99 110.272 225.154C108.816 226.61 106.487 227.193 103.575 227.193Z" fill="#4B2D87"/>
<path d="M301.86 113.928C304.772 113.928 307.101 114.511 308.848 115.966C310.595 117.131 312.051 119.169 313.216 121.79L354.27 213.799C355.435 216.419 355.726 218.749 355.144 220.787C354.562 222.825 353.397 224.281 351.941 225.446C350.194 226.61 348.156 227.193 345.827 227.193C342.915 227.193 340.586 226.61 339.13 225.154C337.674 223.698 336.218 221.951 335.345 219.331L298.075 133.145H304.772L267.794 219.622C266.629 222.243 265.173 223.99 263.717 225.446C262.261 226.61 259.932 227.484 257.02 227.484C254.691 227.484 252.944 226.901 251.197 225.737C249.741 224.572 248.577 223.116 248.285 221.078C247.994 219.04 248.285 216.71 249.45 214.09L290.505 122.081C291.669 119.46 293.125 117.422 294.872 116.258C296.619 114.511 298.949 113.928 301.86 113.928Z" fill="#4B2D87"/>
<path d="M383.096 227.193C379.602 227.193 376.982 226.319 375.235 224.572C373.488 222.825 372.614 220.205 372.614 216.71V124.701C372.614 121.207 373.488 118.587 375.235 116.84C376.982 115.093 379.602 114.219 383.096 114.219H420.948C428.809 114.219 435.215 115.384 440.747 117.713C446.28 120.043 450.356 123.246 453.268 127.613C456.179 131.981 457.635 136.93 457.635 143.045C457.635 149.742 455.597 157.895 451.812 162.553C448.027 167.212 442.494 170.124 435.797 171.871V169.541C443.659 170.706 449.482 173.618 453.85 178.276C458.217 182.935 460.256 189.05 460.256 196.62C460.256 206.52 457.053 214.09 450.356 219.622C443.659 225.154 434.342 227.775 422.695 227.775H383.096V227.193ZM391.831 163.427H417.454C424.442 163.427 429.392 161.971 432.886 159.35C436.38 156.73 438.127 150.324 438.127 145.083C438.127 139.842 436.38 135.766 432.886 133.145C429.392 130.525 424.442 129.069 417.454 129.069H391.831V163.427ZM391.831 212.052H420.074C427.062 212.052 432.303 210.596 435.797 207.975C439.291 205.064 440.747 200.987 440.747 195.455C440.747 189.923 439 185.556 435.797 182.935C432.303 180.314 427.062 178.859 420.074 178.859H391.831V212.052Z" fill="#4B2D87"/>
<path d="M493.74 227.193C490.537 227.193 487.917 226.319 486.17 224.572C484.422 222.825 483.549 220.205 483.549 217.002V124.119C483.549 120.625 484.422 118.296 486.17 116.549C487.917 114.802 490.246 113.928 493.74 113.928C496.943 113.928 499.563 114.802 501.31 116.549C503.057 118.296 503.931 120.916 503.931 124.119V210.014H549.353C552.265 210.014 554.303 210.887 555.759 212.343C557.215 213.799 558.088 215.837 558.088 218.749C558.088 221.369 557.215 223.698 555.759 225.154C554.303 226.61 551.973 227.484 549.353 227.484H493.74V227.193Z" fill="#4B2D87"/>
<path d="M582.546 227.193C579.052 227.193 576.432 226.319 574.685 224.572C572.938 222.825 572.064 220.205 572.064 216.71V124.701C572.064 121.207 572.938 118.587 574.685 116.84C576.432 115.093 579.052 114.219 582.546 114.219H638.741C641.362 114.219 643.4 114.802 644.856 116.258C646.312 117.713 646.894 119.46 646.894 122.081C646.894 124.701 646.312 126.74 644.856 128.195C643.4 129.651 641.362 130.234 638.741 130.234H591.281V163.136H635.247C637.868 163.136 639.906 163.718 641.362 165.174C642.818 166.63 643.4 168.668 643.4 171.288C643.4 173.909 642.818 175.947 641.362 177.403C639.906 178.859 637.868 179.441 635.247 179.441H591.281V211.761H638.741C641.362 211.761 643.4 212.343 644.856 213.799C646.312 215.255 646.894 217.293 646.894 219.913C646.894 222.534 646.312 224.572 644.856 226.028C643.4 227.484 641.362 228.066 638.741 228.066H582.546V227.193Z" fill="#4B2D87"/>
<path d="M686.493 227.193C685.328 227.193 684.746 226.901 683.873 226.319C682.999 225.737 682.999 224.863 682.999 223.698V117.422C682.999 116.258 683.29 115.384 683.873 114.802C684.455 114.219 685.328 113.928 686.202 113.928C687.366 113.928 687.949 114.219 688.531 114.802C689.113 115.384 689.405 116.258 689.405 117.422V221.078H745.891C747.056 221.078 747.929 221.369 748.512 221.951C749.094 222.534 749.385 223.116 749.385 224.281C749.385 225.446 749.094 226.028 748.512 226.61C747.929 227.193 747.056 227.484 745.891 227.484H686.493V227.193Z" fill="#4B2D87"/>
<path d="M875.461 227.193C874.296 227.193 873.132 226.901 872.549 226.028C871.967 225.445 871.385 224.281 871.385 223.116V117.713C871.385 116.549 871.676 115.384 872.549 114.802C873.132 114.219 874.296 113.637 875.461 113.637H912.148C919.719 113.637 926.124 114.802 931.365 117.131C936.606 119.46 940.683 122.663 943.303 127.031C946.215 131.398 947.379 136.639 947.379 143.045C947.379 150.033 945.341 158.477 940.974 163.136C936.897 167.794 931.074 170.706 924.086 172.162V169.832C931.948 170.706 938.353 173.326 943.012 177.985C947.671 182.644 950 189.049 950 197.202C950 207.102 946.797 214.672 940.683 219.622C934.568 224.572 925.542 227.193 914.186 227.193H875.461ZM878.081 168.085H911.566C920.883 168.085 928.162 166.047 933.112 162.262C938.062 158.477 940.391 150.033 940.391 142.754C940.391 135.183 938.062 129.651 933.112 125.866C928.162 122.081 920.883 120.043 911.566 120.043H878.081V168.085ZM878.081 221.078H913.895C923.504 221.078 930.783 219.04 935.733 215.255C940.683 211.469 943.012 205.646 943.012 197.493C943.012 189.341 940.683 183.517 935.733 179.732C930.783 175.947 923.504 174.2 913.895 174.2H878.081V221.078Z" fill="#4B2D87"/>
<path d="M222.371 135.766L201.407 147.121L179.57 135.766V200.114C179.57 212.052 189.178 221.66 201.116 221.66C212.763 221.66 222.08 212.343 222.08 200.696V135.766H222.371Z" fill="#E0F2F1"/>
<path d="M227.904 126.74L201.407 141.007L174.038 126.74L169.67 135.766H174.038V165.756V201.861C174.038 215.837 185.393 227.193 199.369 227.193H202.863C216.839 227.193 228.195 215.837 228.195 201.861V135.766H233.145L227.904 126.74ZM179.57 135.766L201.407 147.121L222.371 135.766V200.696C222.371 212.343 213.054 221.66 201.407 221.66C189.469 221.66 179.861 212.052 179.861 200.114V135.766H179.57Z" fill="#4B2D87"/>
<path d="M239.259 133.892V91.3818L235.183 93.7112V133.892C234.309 134.475 233.727 135.639 233.727 136.804C233.727 138.842 235.183 140.298 237.221 140.298C239.259 140.298 240.715 138.842 240.715 136.804C240.715 135.639 240.133 134.475 239.259 133.892Z" fill="#4B2D87"/>
<path d="M201.407 72L158.897 90.3436L174.62 98.4963V112.472L201.407 127.613L227.904 112.181V98.2051L243.627 90.0524L201.407 72Z" fill="#4B2D87"/>
<path d="M205.192 151.78H197.622L192.381 191.088L201.407 205.355L210.434 191.088L205.192 151.78Z" fill="#4B2D87"/>
<path d="M205.192 151.78L212.472 135.183L201.407 141.298L190.343 135.475L197.622 151.78H205.192Z" fill="#4B2D87"/>
<path d="M858.282 222.243L813.442 117.131C813.151 115.966 812.569 115.093 811.695 114.511C810.822 113.928 810.239 113.637 809.366 113.637C808.492 113.637 807.91 113.928 807.037 114.511C806.163 115.093 805.581 115.966 805.29 117.131L760.159 222.243C759.867 223.116 759.576 223.99 759.576 224.863C759.576 225.737 759.867 226.319 760.45 226.61C761.032 226.901 761.906 227.193 762.779 227.193C763.361 227.193 763.944 226.901 764.817 226.319C765.691 225.737 766.273 224.863 766.564 223.698L809.075 123.537H809.366L851.876 223.698C852.168 224.572 852.75 225.445 853.623 226.028C854.206 226.61 855.079 226.901 856.244 226.901C857.409 226.901 857.991 226.61 858.573 226.319C858.864 226.028 859.156 225.154 859.156 224.572C858.864 223.99 858.573 223.116 858.282 222.243Z" fill="#4B2D87"/>
<path d="M301.86 197.493C306.363 197.493 310.013 193.843 310.013 189.341C310.013 184.838 306.363 181.188 301.86 181.188C297.358 181.188 293.708 184.838 293.708 189.341C293.708 193.843 297.358 197.493 301.86 197.493Z" fill="#4B2D87"/>
<path d="M809.075 194.582C811.969 194.582 814.316 192.235 814.316 189.341C814.316 186.446 811.969 184.1 809.075 184.1C806.18 184.1 803.834 186.446 803.834 189.341C803.834 192.235 806.18 194.582 809.075 194.582Z" fill="#4B2D87"/>
</svg>
